# File created by Blade
# Date/Time:  Fri Jan 16 14:33:41 2015
# Frame Rate: 120.000 fps
#------------------------------------------------------
:FULLY-SPECIFIED
:DEGREES
2130
root 19.106019 35.681861 -24.561423 -169.445619 -9.462193 -179.053035
Spine -19.096536 -17.631353 2.465229
Head 7.773821 1.887650 5.976222
LeftShoulder -13.609063 -12.692127 -0.702912
LeftArm -21.883925 7.002262 -76.059532
LeftForeArm -0.246390 -0.000000 10.935002
LeftHand -1.389425 -0.000000 1.009849
LeftHandThumb1 -26.253704 0.000000 33.147579
RightShoulder -17.979677 -20.141925 13.014048
RightArm -15.453073 37.295201 76.679847
RightForeArm 1.401910 -0.000000 55.300228
RightHand -2.469434 0.000000 -66.371665
RightHandThumb1 -24.326973 -0.000000 -32.862282
LeftUpLeg -2.636865 5.480835 1.219432
LeftLeg -6.152191 -0.000000 0.000000
LeftFoot -18.887291 23.120908 -14.059064
LeftToeBase 25.776196 -0.000000 -0.000000
RightUpLeg -2.165025 -16.232707 4.487877
RightLeg -3.991322 -0.000000 0.000000
RightFoot -21.944818 -25.712512 18.422905
RightToeBase 21.796443 -0.000000 -0.000000
2131
root 19.109013 35.681413 -24.564985 -169.425244 -9.512882 -179.074071
Spine -19.121703 -17.554545 2.396573
Head 7.776759 1.744418 5.914149
LeftShoulder -13.629021 -12.707936 -0.687531
LeftArm -21.850178 7.066496 -76.071522
LeftForeArm -0.349596 -0.000000 10.943135
LeftHand -1.374065 -0.000000 0.840695
LeftHandThumb1 -26.253704 0.000000 33.147579
RightShoulder -17.906376 -20.083463 12.901967
RightArm -15.425121 36.791900 76.684134
RightForeArm 1.054669 -0.000000 52.951373
RightHand -2.242203 0.000000 -66.365332
RightHandThumb1 -24.326973 -0.000000 -32.862282
LeftUpLeg -2.681058 5.489424 1.208917
LeftLeg -6.103437 -0.000000 0.000000
LeftFoot -18.900100 23.047493 -14.054213
LeftToeBase 25.847106 -0.000000 -0.000000
RightUpLeg -2.174290 -16.253967 4.481728
RightLeg -3.989520 -0.000000 0.000000
RightFoot -21.974757 -25.725270 18.432180
RightToeBase 21.809846 -0.000000 -0.000000
2132
root 19.115430 35.680421 -24.571603 -169.420825 -9.571843 -179.084629
Spine -19.147695 -17.464058 2.334195
Head 7.808782 1.598195 5.820122
LeftShoulder -13.614026 -12.728221 -0.681557
LeftArm -21.837122 7.136888 -76.079111
LeftForeArm -0.387586 -0.000000 10.941321
LeftHand -1.400455 -0.000000 0.773542
LeftHandThumb1 -26.253704 0.000000 33.147579
RightShoulder -17.933184 -20.182478 12.745249
RightArm -15.027379 36.534589 76.976270
RightForeArm 0.772402 -0.000000 50.286382
RightHand -1.832775 -0.000000 -66.384912
RightHandThumb1 -24.326973 -0.000000 -32.862282
LeftUpLeg -2.688227 5.475837 1.216858
LeftLeg -6.095159 -0.000000 0.000000
LeftFoot -18.893847 23.008099 -14.054965
LeftToeBase 25.789837 -0.000000 -0.000000
RightUpLeg -2.159071 -16.273156 4.488318
RightLeg -3.997198 -0.000000 0.000000
RightFoot -21.983083 -25.749169 18.417289
RightToeBase 21.766270 -0.000000 -0.000000
2133
root 19.122939 35.679930 -24.574913 -169.410461 -9.646841 -179.071849
Spine -19.173670 -17.394272 2.315171
Head 7.824886 1.475281 5.715520
LeftShoulder -13.601284 -12.754063 -0.692655
LeftArm -21.822203 7.170675 -76.075063
LeftForeArm -0.411948 -0.000000 10.941372
LeftHand -1.363851 -0.000000 0.586685
LeftHandThumb1 -26.253704 0.000000 33.147579
RightShoulder -17.965052 -20.332891 12.580976
RightArm -14.497040 36.483855 77.381419
RightForeArm 0.387584 -0.000000 47.588542
RightHand -1.839253 -0.000000 -66.408331
RightHandThumb1 -24.326973 -0.000000 -32.862282
LeftUpLeg -2.715231 5.438021 1.249167
LeftLeg -6.083735 -0.000000 0.000000
LeftFoot -18.887764 22.993071 -14.027650
LeftToeBase 25.818618 -0.000000 -0.000000
RightUpLeg -2.100080 -16.117142 4.510795
RightLeg -4.109085 -0.000000 0.000000
RightFoot -22.005745 -25.955552 18.509099
RightToeBase 21.760223 -0.000000 -0.000000
2134
root 19.128784 35.678699 -24.580122 -169.410646 -9.732001 -179.076448
Spine -19.184196 -17.345965 2.266050
Head 7.829001 1.329682 5.656916
LeftShoulder -13.599680 -12.777039 -0.681261
LeftArm -21.796768 7.204005 -76.089633
LeftForeArm -0.284594 -0.000000 10.905192
LeftHand -1.395222 -0.000000 0.690219
LeftHandThumb1 -26.253704 0.000000 33.147579
RightShoulder -17.929528 -20.362408 12.502848
RightArm -14.370770 35.874395 77.586209
RightForeArm 0.732970 -0.000000 45.313922
RightHand -1.719440 -0.000000 -66.115467
RightHandThumb1 -24.326973 -0.000000 -32.862282
LeftUpLeg -2.721311 5.401469 1.263218
LeftLeg -6.085429 -0.000000 0.000000
LeftFoot -18.890293 22.968464 -14.029370
LeftToeBase 25.863812 -0.000000 -0.000000
RightUpLeg -2.073993 -16.091685 4.519895
RightLeg -4.126571 -0.000000 0.000000
RightFoot -22.050064 -26.036418 18.547629
RightToeBase 21.705666 -0.000000 -0.000000
2135
root 19.135243 35.677241 -24.587112 -169.426945 -9.840373 -179.097112
Spine -19.174757 -17.328984 2.189206
Head 7.846269 1.188507 5.622884
LeftShoulder -13.582495 -12.778345 -0.669063
LeftArm -21.782855 7.204652 -76.096147
LeftForeArm -0.251189 -0.000000 10.917085
LeftHand -1.412000 -0.000000 0.764132
LeftHandThumb1 -26.253704 0.000000 33.147579
RightShoulder -17.963020 -20.398169 12.509601
RightArm -14.205957 35.111429 77.800936
RightForeArm 1.264113 0.000000 43.204364
RightHand -1.811915 -0.000000 -65.847389
RightHandThumb1 -24.326973 -0.000000 -32.862282
LeftUpLeg -2.708170 5.347091 1.268845
LeftLeg -6.087093 -0.000000 0.000000
LeftFoot -18.873204 22.941771 -14.003900
LeftToeBase 25.875791 -0.000000 -0.000000
RightUpLeg -2.027725 -16.131422 4.515649
RightLeg -4.143295 -0.000000 0.000000
RightFoot -22.085732 -26.080938 18.555575
RightToeBase 21.698034 -0.000000 -0.000000
2136
root 19.143050 35.676073 -24.595430 -169.459108 -9.968762 -179.109829
Spine -19.155777 -17.342776 2.124262
Head 7.887133 1.080955 5.605515
LeftShoulder -13.581540 -12.782697 -0.663939
LeftArm -21.770617 7.260984 -76.114363
LeftForeArm -0.327563 0.000000 10.922027
LeftHand -1.428174 -0.000000 0.809503
LeftHandThumb1 -26.253704 0.000000 33.147579
RightShoulder -18.024106 -20.501747 12.491423
RightArm -13.919123 34.241146 78.134218
RightForeArm 1.775025 -0.000000 40.999680
RightHand -1.924668 -0.000000 -65.737222
RightHandThumb1 -24.326973 -0.000000 -32.862282
LeftUpLeg -2.679988 5.280778 1.288609
LeftLeg -6.092569 -0.000000 0.000000
LeftFoot -18.841331 22.902991 -13.990728
LeftToeBase 25.833287 -0.000000 -0.000000
RightUpLeg -1.961889 -16.168164 4.517959
RightLeg -4.156589 -0.000000 0.000000
RightFoot -22.136538 -26.143152 18.593232
RightToeBase 21.634206 -0.000000 -0.000000
2137
root 19.152585 35.675477 -24.601001 -169.456823 -10.089346 -179.109493
Spine -19.171170 -17.367818 2.079792
Head 7.906875 0.971467 5.629028
LeftShoulder -13.630701 -12.779911 -0.630238
LeftArm -21.739152 7.284185 -76.134116
LeftForeArm -0.356138 -0.000000 10.910879
LeftHand -1.420498 0.000000 0.805758
LeftHandThumb1 -26.253704 0.000000 33.147579
RightShoulder -18.013070 -20.467998 12.546530
RightArm -13.982044 33.005837 78.284445
RightForeArm 2.477862 0.000000 39.133396
RightHand -1.779730 -0.000000 -65.413123
RightHandThumb1 -24.326973 -0.000000 -32.862282
LeftUpLeg -2.699907 5.231314 1.319421
LeftLeg -6.082730 -0.000000 0.000000
LeftFoot -18.835011 22.849698 -13.984377
LeftToeBase 25.911415 -0.000000 -0.000000
RightUpLeg -1.946510 -16.194375 4.547761
RightLeg -4.161146 -0.000000 0.000000
RightFoot -22.174494 -26.206262 18.631847
RightToeBase 21.684632 -0.000000 -0.000000
2138
root 19.159831 35.675058 -24.607892 -169.470252 -10.207719 -179.125288
Spine -19.168471 -17.404476 2.009769
Head 7.937300 0.862098 5.672092
LeftShoulder -13.677705 -12.763060 -0.596138
LeftArm -21.697226 7.290893 -76.149927
LeftForeArm -0.433932 -0.000000 10.891211
LeftHand -1.420742 -0.000000 0.803012
LeftHandThumb1 -26.253704 0.000000 33.147579
RightShoulder -17.982532 -20.360946 12.665803
RightArm -14.215578 31.963143 78.385966
RightForeArm 2.737830 -0.000000 37.533850
RightHand -1.709448 -0.000000 -65.417773
RightHandThumb1 -24.326973 -0.000000 -32.862282
LeftUpLeg -2.695957 5.193508 1.330368
LeftLeg -6.079480 -0.000000 0.000000
LeftFoot -18.812161 22.786499 -13.986457
LeftToeBase 25.923903 -0.000000 -0.000000
RightUpLeg -1.906365 -16.224817 4.551478
RightLeg -4.171107 -0.000000 0.000000
RightFoot -22.221394 -26.278793 18.663472
RightToeBase 21.661825 -0.000000 -0.000000
2139
root 19.166329 35.674285 -24.617037 -169.506656 -10.309483 -179.142000
Spine -19.153491 -17.434906 1.947484
Head 7.992364 0.777576 5.677252
LeftShoulder -13.705685 -12.752131 -0.585642
LeftArm -21.684961 7.318642 -76.175208
LeftForeArm -0.446867 -0.000000 10.888304
LeftHand -1.454010 -0.000000 0.812199
LeftHandThumb1 -26.253704 0.000000 33.147579
RightShoulder -17.967963 -20.334805 12.712503
RightArm -14.267057 31.143129 78.651624
RightForeArm 2.547890 -0.000000 35.733860
RightHand -1.587274 -0.000000 -65.249277
RightHandThumb1 -24.326973 -0.000000 -32.862282
LeftUpLeg -2.651024 5.177298 1.339417
LeftLeg -6.096476 -0.000000 0.000000
LeftFoot -18.784081 22.724146 -13.978885
LeftToeBase 25.909180 -0.000000 -0.000000
RightUpLeg -1.840143 -16.276353 4.544197
RightLeg -4.178272 -0.000000 0.000000
RightFoot -22.257674 -26.286198 18.691819
RightToeBase 21.606497 -0.000000 -0.000000
